<?xml version="1.0" standalone="no"?><!DOCTYPE svg PUBLIC "-//W3C//DTD SVG 1.1//EN" "http://www.w3.org/Graphics/SVG/1.1/DTD/svg11.dtd"><svg t="1574338672164" class="icon" viewBox="0 0 1024 1024" version="1.1" xmlns="http://www.w3.org/2000/svg" p-id="2139" xmlns:xlink="http://www.w3.org/1999/xlink" width="32" height="32"><defs><style type="text/css"></style></defs><path d="M390.5 528.2c-146.6 0-265.5 16.2-265.5 36.2 0 17.1 118.9 40.8 265.5 40.8S656 582.6 656 564.4c0-20-118.8-36.2-265.5-36.2z" fill="#896750" p-id="2140"></path><path d="M390.5 615.2c-67.8 0-135.1-5-189.4-14.1-24.1-4.1-44.4-8.8-58.5-13.6-13.7-4.7-27.6-11.1-27.6-23 0-13 14.9-19.4 27.8-23.6 13.9-4.5 33.7-8.5 58.6-11.9 50.6-6.9 117.7-10.7 189.1-10.7S529 522 579.6 528.9c25 3.4 44.7 7.4 58.6 11.9 12.9 4.2 27.8 10.6 27.8 23.6 0 12.3-14.7 19-27.6 23.5-14 4.9-34.3 9.6-58.6 13.6-53.5 8.8-120.7 13.7-189.3 13.7zM138.2 564c8.4 4.3 30.1 11.8 75.8 18.8 51.5 7.9 114.2 12.3 176.5 12.3 63 0 125.7-4.2 176.7-11.9 46.6-7 68-14.7 76-19-6.7-3.6-25.4-10.6-75.9-16.8-48.5-6-111.3-9.3-176.8-9.3s-128.3 3.3-176.8 9.3c-49.6 6.2-68.5 13-75.5 16.6z m508.4 2.7z" fill="#543630" p-id="2141"></path><path d="M434.6 802.4h-88.2c-44.5 0-79-36.2-73.9-77.3L300 505.6h181l27.5 219.5c5.2 41.2-29.4 77.3-73.9 77.3z" fill="#FFFFFF" p-id="2142"></path><path d="M434.6 812.4h-88.2c-25.2 0-48.9-10.5-65-28.7-14.9-16.9-21.6-38.1-18.8-59.9l27.5-219.5c0.6-5 4.9-8.8 9.9-8.8h181c5 0 9.3 3.8 9.9 8.8l27.5 219.5c2.7 21.8-4 43-18.8 59.9-16.1 18.3-39.8 28.7-65 28.7zM308.9 515.6l-26.4 210.7c-2 16 3 31.7 14 44.2 12.3 13.9 30.5 21.9 50 21.9h88.2c19.5 0 37.7-8 50-21.9 11-12.5 16-28.2 14-44.2l-26.4-210.7H308.9z" fill="#543630" p-id="2143"></path><path d="M508.5 725.1L481 505.6h-47.3l19 173.9c3.9 48.9-20 66-71.6 65.9h-88.2c-7 0-13.7-0.9-20.1-2.5 5 33.3 35.7 59.5 73.6 59.5h88.2c44.5 0 79.1-36.1 73.9-77.3z" fill="#EFE7DA" p-id="2144"></path><path d="M434.6 812.4h-88.2c-25.2 0-48.9-10.5-65-28.7-14.9-16.9-21.6-38.1-18.8-59.9l27.5-219.5c0.6-5 4.9-8.8 9.9-8.8h181c5 0 9.3 3.8 9.9 8.8l27.5 219.5c2.7 21.8-4 43-18.8 59.9-16.1 18.3-39.8 28.7-65 28.7zM308.9 515.6l-26.4 210.7c-2 16 3 31.7 14 44.2 12.3 13.9 30.5 21.9 50 21.9h88.2c19.5 0 37.7-8 50-21.9 11-12.5 16-28.2 14-44.2l-26.4-210.7H308.9z" fill="#543630" p-id="2145"></path><path d="M390.5 199.9C204.8 199.9 102 332.1 102 455.4s23 110.8 23 110.8c0-18.7 117-38 265.5-38s265.5 19.3 265.5 38c0 0 22.6 16.9 23-110.8 0.5-127.8-102.7-255.5-288.5-255.5z" fill="#FF5F67" p-id="2146"></path><path d="M658.6 576.9c-3.5 0-6.6-1.2-8.6-2.8-2-1.5-3.3-3.6-3.8-5.9-4.3-3.9-25.2-12.3-78.4-19.5-49.7-6.8-112.7-10.5-177.3-10.5-64.6 0-127.6 3.7-177.3 10.5-53.2 7.2-74.1 15.6-78.4 19.5-0.6 2.8-2.4 5.3-5 6.7-3.4 1.8-9.1 2.6-14.8-0.8-9.9-5.9-23-24.6-23-118.8 0-66.2 28.3-132.2 77.6-181.1 26.5-26.2 58-46.8 93.8-61.1 38.6-15.5 81.4-23.3 127.2-23.3 46.6 0 90 7.9 128.9 23.3 36.3 14.5 68.2 35.2 94.6 61.8 24.3 24.4 43.2 52.7 56.1 84.2 12.7 30.9 19 63.2 18.9 96.2-0.4 96-12.8 114.5-23.5 119.9-2.4 1.2-4.8 1.7-7 1.7z m-268.1-58.7c70.4 0 137.8 4.3 189.9 12.1 47.4 7.1 69.1 15 78.6 22.6 3.7-8.7 9.8-32.8 10-97.6 0.1-30.3-5.7-60.1-17.4-88.5-11.9-29.1-29.3-55.2-51.8-77.7-24.5-24.6-54-43.8-87.8-57.3-36.6-14.5-77.5-21.9-121.5-21.9-105.4 0-170.7 42.8-206.9 78.6-45.5 45.1-71.6 105.9-71.6 166.9 0 64.9 6.5 88.8 10.4 97.2 9.7-7.6 31.4-15.3 78.2-22.3 52.1-7.8 119.5-12.1 189.9-12.1z" fill="#543630" p-id="2147"></path><path d="M451.3 275.9m-33.8 0a33.8 33.8 0 1 0 67.6 0 33.8 33.8 0 1 0-67.6 0Z" fill="#FFFFFF" p-id="2148"></path><path d="M390.8 461.1m-33.8 0a33.8 33.8 0 1 0 67.6 0 33.8 33.8 0 1 0-67.6 0Z" fill="#FFFFFF" p-id="2149"></path><path d="M168.2 461.4m-25 0a25 25 0 1 0 50 0 25 25 0 1 0-50 0Z" fill="#FFFFFF" p-id="2150"></path><path d="M566.3 413.4m-54.4 0a54.4 54.4 0 1 0 108.8 0 54.4 54.4 0 1 0-108.8 0Z" fill="#FFFFFF" p-id="2151"></path><path d="M274.6 349.2m-49 0a49 49 0 1 0 98 0 49 49 0 1 0-98 0Z" fill="#FFFFFF" p-id="2152"></path><path d="M698.5 686.8c-67.7-67.7-130-115-139.2-105.8-7.9 7.9 36 73.7 103.7 141.4s132.9 112 141.3 103.6c9.3-9.2-38.1-71.5-105.8-139.2z" fill="#896750" p-id="2153"></path><path d="M801.2 837c-6.7 0-13.6-3.4-17.3-5.2-9-4.4-20.4-11.5-33.8-21.1-29-20.8-62.4-49.7-94.1-81.4-31.4-31.4-60.3-65-81.3-94.4-28.9-40.5-29.8-53.7-22.4-61.1 9.4-9.4 26.5-2.9 60.8 23.2 26.6 20.3 59.5 49.6 92.5 82.6 33 33 62.4 65.9 82.6 92.5 26.1 34.3 32.6 51.4 23.2 60.8-2.9 3.1-6.5 4.1-10.2 4.1z m-5.7-14.4zM572.3 593.7c3.8 7.5 10.9 19.3 23.6 36.5 19.9 26.9 46.2 57.1 74.2 85 28.2 28.2 58.3 54.6 84.8 74.3 17.5 13.1 29.5 20.2 36.9 23.9-3.6-6.8-10.7-18.1-24.9-36-19.4-24.6-46.2-54.3-75.5-83.6-29.3-29.3-59-56.1-83.6-75.5-17.5-13.8-28.7-20.9-35.5-24.6z" fill="#543630" p-id="2154"></path><path d="M596.8 829.2l-40.7-40.7c-20.5-20.5-19.8-53.2 1.6-69.8l114-88.6 83.5 83.5-88.6 114c-16.6 21.4-49.2 22.1-69.8 1.6z" fill="#FFFFFF" p-id="2155"></path><path d="M632.1 854.1c-15.6 0-30.9-6.4-42.3-17.9l-40.7-40.7c-12.3-12.3-18.8-29.1-17.8-45.9 1-15.6 8.2-29.4 20.3-38.9l114-88.6c4-3.1 9.6-2.7 13.2 0.8l83.5 83.5c3.6 3.6 3.9 9.2 0.8 13.2l-88.6 114c-9.4 12.1-23.2 19.3-38.9 20.3-1.1 0.2-2.3 0.2-3.5 0.2z m-28.2-32c8.3 8.3 19.4 12.6 30.5 11.9 9.8-0.6 18.5-5.1 24.3-12.6l83.2-107-71-71-107 83.2c-7.5 5.8-12 14.5-12.6 24.3-0.7 11.1 3.7 22.2 11.9 30.5l40.7 40.7z" fill="#543630" p-id="2156"></path><path d="M666.6 827.6l88.6-114-21.8-21.8-71.5 89c-20.8 24.4-39.7 21.2-63.5-2.6l-40.7-40.7c-3.2-3.2-5.9-6.7-8.1-10.4-13 17.7-11 44 6.5 61.5l40.7 40.7c20.6 20.4 53.2 19.7 69.8-1.7z" fill="#EFE7DA" p-id="2157"></path><path d="M632.1 854.1c-15.6 0-30.9-6.4-42.3-17.9l-40.7-40.7c-12.3-12.3-18.8-29.1-17.8-45.9 1-15.6 8.2-29.4 20.3-38.9l114-88.6c4-3.1 9.6-2.7 13.2 0.8l83.5 83.5c3.6 3.6 3.9 9.2 0.8 13.2l-88.6 114c-9.4 12.1-23.2 19.3-38.9 20.3-1.1 0.2-2.3 0.2-3.5 0.2z m-28.2-32c8.3 8.3 19.4 12.6 30.5 11.9 9.8-0.6 18.5-5.1 24.3-12.6l83.2-107-71-71-107 83.2c-7.5 5.8-12 14.5-12.6 24.3-0.7 11.1 3.7 22.2 11.9 30.5l40.7 40.7z" fill="#543630" p-id="2158"></path><path d="M850 535.3c-85.7-85.7-194.2-72.1-251-15.3s-40.5 61.8-40.5 61.8c8.6-8.6 71.5 36.5 140 105s113.6 131.4 105 140c0 0 2.6 18.2 61.8-40.5 59.2-58.7 70.4-165.3-15.3-251z" fill="#FF5F67" p-id="2159"></path><path d="M807.6 839.5c-1.8 0-3.5-0.3-5-0.8-5.8-2-8.5-6.9-9-10.5-0.3-1.9 0-3.8 0.8-5.6-1-4.6-7.7-18.3-27.7-44.3-19.6-25.5-46.3-55.5-75.3-84.5-28.9-28.9-58.9-55.7-84.5-75.3-26-20-39.7-26.7-44.3-27.7-2.2 1-4.7 1.2-7 0.5-3.3-1-7.4-4.1-8.8-9.7-2.2-8.8 0.9-24.5 45.1-68.7 31-31 75.1-48.8 121-48.8h0.8c36.4 0.2 90.7 11.4 143.4 64 53.8 53.8 65 108.5 64.9 144.9-0.1 45.2-18.2 89.1-49.7 120.3-18.6 18.4-33.7 31.4-45.1 38.7-7.8 5.1-14.2 7.5-19.6 7.5z m-11.2-19.7z m-227.8-248c4.1 1.2 7.9 3 10.2 4.2 8.8 4.4 19.9 11.6 33.2 21.3 27.8 20.5 61 49.8 93.6 82.4 32.6 32.6 61.9 65.9 82.4 93.6 9.8 13.2 17 24.4 21.3 33.2 1.2 2.4 3.1 6.3 4.3 10.5 6.8-3.8 20.1-13.5 44.6-37.8C886 751.7 901.9 713 902 673.1c0.1-32.6-10.1-81.8-59-130.7-47.8-47.8-96.7-58-129.3-58.2-41-0.2-80.1 15.5-107.6 42.9-24.5 24.4-33.9 37.9-37.5 44.7z" fill="#543630" p-id="2160"></path><path d="M826.358091 605.318672a18.7 18.7 0 1 0 26.445332-26.446255 18.7 18.7 0 1 0-26.445332 26.446255Z" fill="#FFFFFF" p-id="2161"></path><path d="M721.467757 667.046161a22.1 22.1 0 1 0 31.253574-31.254665 22.1 22.1 0 1 0-31.253574 31.254665Z" fill="#FFFFFF" p-id="2162"></path><path d="M615.17534 564.936406a16.3 16.3 0 1 0 23.051279-23.052084 16.3 16.3 0 1 0-23.051279 23.052084Z" fill="#FFFFFF" p-id="2163"></path><path d="M807.463741 740.013667a35.5 35.5 0 1 0 50.203705-50.205458 35.5 35.5 0 1 0-50.203705 50.205458Z" fill="#FFFFFF" p-id="2164"></path><path d="M704.553591 570.761346a30.5 30.5 0 1 0 43.13276-43.134266 30.5 30.5 0 1 0-43.13276 43.134266Z" fill="#FFFFFF" p-id="2165"></path></svg>